<!--?xml version="1.0" standalone="no"?-->
              <svg id="sw-js-blob-svg" viewBox="0 0 100 100" xmlns="http://www.w3.org/2000/svg" version="1.1">
                    <defs> 
                        <linearGradient id="sw-gradient" x1="0" x2="1" y1="1" y2="0">
                            <stop id="stop1" stop-color="rgba(248, 117, 55, 1)" offset="0%"></stop>
                            <stop id="stop2" stop-color="rgba(251, 168, 31, 1)" offset="100%"></stop>
                        </linearGradient>
                    </defs>
                <path fill="url(#sw-gradient)" d="M22,-35.2C28.6,-30.1,34,-24,37.5,-17C40.9,-9.9,42.4,-1.8,41.5,6.1C40.6,14,37.2,21.7,31.7,26.8C26.2,31.8,18.5,34.3,10.5,37.3C2.6,40.2,-5.6,43.7,-12.2,41.6C-18.7,39.6,-23.6,32.1,-29,25.4C-34.5,18.7,-40.6,12.7,-43.4,5.2C-46.1,-2.3,-45.5,-11.4,-41.6,-18.5C-37.6,-25.7,-30.4,-30.9,-22.9,-35.7C-15.5,-40.5,-7.7,-44.8,0,-44.8C7.7,-44.8,15.5,-40.4,22,-35.2Z" width="100%" height="100%" transform="translate(50 50)" stroke-width="0" style="transition: all 0.3s ease 0s;"></path>
              </svg>